<?xml version="1.0" encoding="UTF-8"?>
<svg id="Layer_1" data-name="Layer 1" xmlns="http://www.w3.org/2000/svg" viewBox="0 0 146.54 116.76"  width="24" height="24" fill="#88702A"> 
  <path d="m66.92,29.5v11.17h-3.56v5.59h-2.16v15.49h-3.17v5.59h-19.56v-3.56h-14.1v-2.92h-7.75v3.81H0v30.6h16.25v4.44h7.62v-4.19h13.71v-3.68h15.49s22.22,11.68,53.97,0c0,0,5.21,2.29,2.03,5.46s-5.21,4.06-5.21,4.06l3.94,13.97s20.44,7.24,38.73-10.92l-3.68-12.06s-1.65-2.03-4.83-1.52l-6.35.38-5.21-10.54s-3.94-7.49-21.33-11.68v-5.46h-9.02v-12.57h-2.03v-4.57h-1.78v-6.35h-4.19v-10.54h-6.35V10.2h25.02V1.69l-22.35,1.9s-5.48-8-13.47-.13l-21.45-1.02v9.02l22.6-1.14v19.3l-5.21-.13Z"/>
</svg>